<svg width="20" height="20" viewBox="0 0 20 20" fill="none" xmlns="http://www.w3.org/2000/svg">
<path d="M17.425 9.26658C17.425 13.3416 14.4667 17.1582 10.425 18.2749C10.15 18.3499 9.84999 18.3499 9.57499 18.2749C5.53333 17.1582 2.575 13.3416 2.575 9.26658V5.60824C2.575 4.92491 3.09168 4.14991 3.73334 3.89158L8.37499 1.9916C9.41666 1.5666 10.5917 1.5666 11.6333 1.9916L16.275 3.89158C16.9083 4.14991 17.4333 4.92491 17.4333 5.60824L17.425 9.26658Z" stroke="#0D121C" stroke-width="1.5" stroke-linecap="round" stroke-linejoin="round"/>
<path d="M10 10.4163C10.9205 10.4163 11.6667 9.67015 11.6667 8.74967C11.6667 7.8292 10.9205 7.08301 10 7.08301C9.07952 7.08301 8.33333 7.8292 8.33333 8.74967C8.33333 9.67015 9.07952 10.4163 10 10.4163Z" stroke="#0D121C" stroke-width="1.5" stroke-miterlimit="10" stroke-linecap="round" stroke-linejoin="round"/>
<path d="M10 10.416V12.916" stroke="#0D121C" stroke-width="1.5" stroke-miterlimit="10" stroke-linecap="round" stroke-linejoin="round"/>
</svg>
